<svg width="1440" height="987" viewBox="0 0 1440 987" fill="none" xmlns="http://www.w3.org/2000/svg"><path fill="#FEF2B5" d="M0 0h1440v987H0z"/><path d="M504.562 484.925v-1.198l-1.197-.022c-15.04-.28-27.145-12.588-27.145-27.743 0-7.663 3.09-14.592 8.113-19.63 5-5.015 11.908-8.112 19.547-8.112h40.24c15.275 0 27.66 12.415 27.66 27.742 0 7.665-3.09 14.593-8.09 19.608-5.024 5.038-11.932 8.135-19.57 8.135h-24.794l-.357.358-13.525 13.563-.003.003c-.338.325-.88.082-.88-.37v-12.335z" stroke="#947AFF" stroke-width="2.44"/><circle cx="1283.05" cy="122.786" r="2.953" stroke="#947AFF" stroke-width="2.2"/><circle cx="1299.05" cy="122.786" r="2.953" stroke="#947AFF" stroke-width="2.2"/><circle cx="1266.83" cy="122.786" r="2.953" stroke="#947AFF" stroke-width="2.2"/><path d="M1265.26 148.417v-1.08l-1.08-.02c-13.34-.247-24.08-11.14-24.08-24.55 0-6.78 2.74-12.91 7.2-17.37 4.43-4.437 10.56-7.18 17.34-7.18h35.72c13.56 0 24.54 10.99 24.54 24.55 0 6.782-2.74 12.913-7.18 17.35-4.45 4.46-10.58 7.2-17.36 7.2h-22.02l-.32.322-12 12.01-.01.003c-.29.282-.75.066-.75-.312v-10.923z" stroke="#947AFF" stroke-width="2.2"/><circle cx="871" cy="200" r="4.9" stroke="#947AFF" stroke-width="2.2"/><circle cx="107" cy="916" r="4.9" stroke="#947AFF" stroke-width="2.2"/></svg>