<svg width="363" height="578" viewBox="0 0 363 578" fill="none" xmlns="http://www.w3.org/2000/svg" xmlns:xlink="http://www.w3.org/1999/xlink"><mask id="a" maskUnits="userSpaceOnUse" x="0" y="0" width="363" height="578"><path d="M355.802 0H7.267C3.284 0 0 3.284 0 7.268v529.14c0 4.054 3.284 7.27 7.267 7.27H268.18l32.98 32.982c2.935 2.866 7.826.84 7.826-3.284v-29.7h46.746c4.053 0 7.267-3.284 7.267-7.267V7.267C363.07 3.284 359.784 0 355.8 0z" fill="#fff"/></mask><g mask="url(#a)"><path fill="url(#b)" d="M-9-40h500v750H-9z"/><path fill="#000" d="M-69-86h500v750H-69z"/></g><pattern id="b" patternContentUnits="objectBoundingBox" width="1" height="1"><use xlink:href="#image0" transform="scale(.00037 .00024)"/></pattern></svg>